<svg width="128" height="128" viewBox="0 0 128 128" fill="none" xmlns="http://www.w3.org/2000/svg">
<path d="M28 14C24.287 14 20.726 15.475 18.1005 18.1005C15.475 20.726 14 24.287 14 28V104C14 107.713 15.475 111.274 18.1005 113.899C20.726 116.525 24.287 118 28 118H63.896C64.48 116.688 65.308 115.464 66.38 114.388L100.4 80.368C100.893 79.8743 101.429 79.4246 102 79.024V28C102 24.287 100.525 20.726 97.8995 18.1005C95.274 15.475 91.713 14 88 14H28Z" fill="url(#paint0_linear_417_2368)"/>
<path d="M34 50C34 48.9391 34.4214 47.9217 35.1716 47.1716C35.9217 46.4214 36.9391 46 38 46H78C79.0609 46 80.0783 46.4214 80.8284 47.1716C81.5786 47.9217 82 48.9391 82 50C82 51.0609 81.5786 52.0783 80.8284 52.8284C80.0783 53.5786 79.0609 54 78 54H38C36.9391 54 35.9217 53.5786 35.1716 52.8284C34.4214 52.0783 34 51.0609 34 50Z" fill="white"/>
<path d="M34 70C34 68.9391 34.4214 67.9217 35.1716 67.1716C35.9217 66.4214 36.9391 66 38 66H58C59.0609 66 60.0783 66.4214 60.8284 67.1716C61.5786 67.9217 62 68.9391 62 70C62 71.0609 61.5786 72.0783 60.8284 72.8284C60.0783 73.5786 59.0609 74 58 74H38C36.9391 74 35.9217 73.5786 35.1716 72.8284C34.4214 72.0783 34 71.0609 34 70Z" fill="#F8F7F3"/>
<path d="M38 86C36.9391 86 35.9217 86.4214 35.1716 87.1716C34.4214 87.9217 34 88.9391 34 90C34 91.0609 34.4214 92.0783 35.1716 92.8284C35.9217 93.5786 36.9391 94 38 94H78C79.0609 94 80.0783 93.5786 80.8284 92.8284C81.5786 92.0783 82 91.0609 82 90C82 88.9391 81.5786 87.9217 80.8284 87.1716C80.0783 86.4214 79.0609 86 78 86H38Z" fill="#F8F7F3"/>
<path d="M34 18C34 14.8174 35.2643 11.7652 37.5147 9.51472C39.7652 7.26428 42.8174 6 46 6H70C73.1826 6 76.2348 7.26428 78.4853 9.51472C80.7357 11.7652 82 14.8174 82 18C82 21.1826 80.7357 24.2348 78.4853 26.4853C76.2348 28.7357 73.1826 30 70 30H46C42.8174 30 39.7652 28.7357 37.5147 26.4853C35.2643 24.2348 34 21.1826 34 18Z" fill="url(#paint1_linear_417_2368)"/>
<path d="M76.1559 115.876L106.596 85.7042L90.3039 69.4082L60.0359 99.9682L61.2679 114.748L76.1559 115.876Z" fill="url(#paint2_linear_417_2368)"/>
<path d="M101.748 90.5603L110.592 81.7043C112.724 79.5914 113.947 76.7298 114.001 73.7288C114.054 70.7278 112.935 67.8243 110.88 65.6363C109.821 64.5084 108.546 63.6054 107.13 62.9812C105.714 62.357 104.187 62.0243 102.64 62.003C101.093 61.9818 99.558 62.2723 98.1257 62.8574C96.6935 63.4424 95.3937 64.31 94.3041 65.4083L85.3521 74.3723L101.748 90.5603Z" fill="url(#paint3_linear_417_2368)"/>
<path d="M90.376 69.3516C91.3237 73.313 93.3662 76.9282 96.2704 79.7842C99.1746 82.6403 102.823 84.6222 106.8 85.5036L100.6 91.7076C96.6223 90.8255 92.9728 88.8425 90.0686 85.9849C87.1643 83.1273 85.1224 79.5105 84.176 75.5476L90.376 69.3516Z" fill="#F8F7F3"/>
<path d="M76.156 115.881L77.048 114.989C77.048 114.989 70.144 112.345 66.908 109.109C63.672 105.869 61.028 98.9727 61.028 98.9727L60.036 99.9687C58.7107 101.306 57.7638 102.97 57.292 104.793L54.132 116.997C53.9569 117.67 53.9607 118.378 54.143 119.05C54.3253 119.722 54.6798 120.335 55.1715 120.828C55.6632 121.321 56.275 121.677 56.9465 121.861C57.6179 122.045 58.3258 122.05 59 121.877L71.08 118.765C72.9977 118.268 74.7492 117.275 76.156 115.881Z" fill="url(#paint4_linear_417_2368)"/>
<defs>
<linearGradient id="paint0_linear_417_2368" x1="14" y1="24.4" x2="96.528" y2="122.6" gradientUnits="userSpaceOnUse">
<stop offset="0.5" stop-color="#CACFC3"/>
<stop offset="1" stop-color="#C6D5C4"/>
</linearGradient>
<linearGradient id="paint1_linear_417_2368" x1="58" y1="6" x2="58" y2="30" gradientUnits="userSpaceOnUse">
<stop stop-color="#EBCDC9"/>
<stop offset="1" stop-color="#E7B8B1"/>
</linearGradient>
<linearGradient id="paint2_linear_417_2368" x1="73.4439" y1="77.7922" x2="98.1759" y2="102.596" gradientUnits="userSpaceOnUse">
<stop stop-color="#EBCDC9"/>
<stop offset="1" stop-color="#E7B8B1"/>
</linearGradient>
<linearGradient id="paint3_linear_417_2368" x1="108.008" y1="67.9403" x2="97.4761" y2="77.8763" gradientUnits="userSpaceOnUse">
<stop stop-color="#EBCDC9"/>
<stop offset="1" stop-color="#E7B8B1"/>
</linearGradient>
<linearGradient id="paint4_linear_417_2368" x1="50.696" y1="105.389" x2="67.3" y2="121.901" gradientUnits="userSpaceOnUse">
<stop offset="0.255" stop-color="#F8F7F3"/>
<stop offset="1" stop-color="#E5DACF"/>
</linearGradient>
</defs>
</svg>
