<svg width="128" height="128" viewBox="0 0 128 128" fill="none" xmlns="http://www.w3.org/2000/svg">
<path d="M22.3333 71C19.328 71 16.4457 72.1937 14.3204 74.3185C12.1951 76.4433 11.0007 79.3253 11 82.3307V84.3333C11 94.3493 16.1787 101.845 24.12 106.68C31.9333 111.435 42.4293 113.667 53.6667 113.667C64.904 113.667 75.4 111.435 83.2133 106.68C91.1547 101.845 96.3333 94.3493 96.3333 84.3333V82.3307C96.3326 79.3253 95.1383 76.4433 93.0129 74.3185C90.8876 72.1937 88.0053 71 85 71H22.3333Z" fill="url(#paint0_linear_417_2348)"/>
<path d="M53.6667 7C38.9387 7 27 18.9387 27 33.6667C27 48.3947 38.9387 60.3333 53.6667 60.3333C68.3947 60.3333 80.3333 48.3947 80.3333 33.6667C80.3333 18.9387 68.3947 7 53.6667 7Z" fill="url(#paint1_linear_417_2348)"/>
<path d="M117.667 92.3353C117.667 76.1326 104.533 63.002 88.3334 63.002C72.136 63.002 59.0027 76.1326 59.0027 92.3353C59.0027 97.306 60.2454 102.101 62.5734 106.367L59.1014 118.41C58.9749 118.848 58.9681 119.311 59.0817 119.753C59.1952 120.194 59.425 120.597 59.7471 120.919C60.0693 121.242 60.4719 121.472 60.9131 121.586C61.3544 121.7 61.8181 121.693 62.256 121.567L74.3067 118.101C78.6092 120.446 83.4329 121.672 88.3334 121.663C104.533 121.663 117.667 108.53 117.667 92.33" fill="url(#paint2_linear_417_2348)"/>
<path d="M77.6667 84H99C99.7072 84 100.386 84.2809 100.886 84.781C101.386 85.2811 101.667 85.9594 101.667 86.6667C101.667 87.3739 101.386 88.0522 100.886 88.5523C100.386 89.0524 99.7072 89.3333 99 89.3333H77.6667C76.9594 89.3333 76.2811 89.0524 75.781 88.5523C75.2809 88.0522 75 87.3739 75 86.6667C75 85.9594 75.2809 85.2811 75.781 84.781C76.2811 84.2809 76.9594 84 77.6667 84ZM75 97.3333C75 96.6261 75.2809 95.9478 75.781 95.4477C76.2811 94.9476 76.9594 94.6667 77.6667 94.6667H91C91.7072 94.6667 92.3855 94.9476 92.8856 95.4477C93.3857 95.9478 93.6667 96.6261 93.6667 97.3333C93.6667 98.0406 93.3857 98.7189 92.8856 99.219C92.3855 99.7191 91.7072 100 91 100H77.6667C76.9594 100 76.2811 99.7191 75.781 99.219C75.2809 98.7189 75 98.0406 75 97.3333Z" fill="url(#paint3_linear_417_2348)"/>
<defs>
<linearGradient id="paint0_linear_417_2348" x1="31.2933" y1="76.672" x2="45.0773" y2="120.693" gradientUnits="userSpaceOnUse">
<stop offset="0.125" stop-color="#EBCDC9"/>
<stop offset="1" stop-color="#E7B8B1"/>
</linearGradient>
<linearGradient id="paint1_linear_417_2348" x1="39.6827" y1="14.0907" x2="66.864" y2="57.4907" gradientUnits="userSpaceOnUse">
<stop offset="0.125" stop-color="#EBCDC9"/>
<stop offset="1" stop-color="#E7B8B1"/>
</linearGradient>
<linearGradient id="paint2_linear_417_2348" x1="61.096" y1="74.002" x2="112.312" y2="161.322" gradientUnits="userSpaceOnUse">
<stop stop-color="#C6D5C4"/>
<stop offset="1" stop-color="#CACFC3"/>
</linearGradient>
<linearGradient id="paint3_linear_417_2348" x1="77.3333" y1="84.28" x2="78.952" y2="101.691" gradientUnits="userSpaceOnUse">
<stop stop-color="white"/>
<stop offset="1" stop-color="#F8F7F3"/>
</linearGradient>
</defs>
</svg>
