<svg width="128" height="128" viewBox="0 0 128 128" fill="none" xmlns="http://www.w3.org/2000/svg">
<path d="M18 61.666C15.3478 61.666 12.8043 62.7196 10.9289 64.5949C9.05357 66.4703 8 69.0139 8 71.666V74.9993C8 74.9993 8 98.9993 42.6667 98.9993C77.3333 98.9993 77.3333 74.9993 77.3333 74.9993V71.666C77.3333 69.0139 76.2798 66.4703 74.4044 64.5949C72.529 62.7196 69.9855 61.666 67.3333 61.666H18Z" fill="url(#paint0_linear_417_2357)"/>
<path d="M90.6667 53.666C94.9102 53.666 98.9799 51.9803 101.98 48.9797C104.981 45.9791 106.667 41.9095 106.667 37.666C106.667 33.4226 104.981 29.3529 101.98 26.3523C98.9799 23.3517 94.9102 21.666 90.6667 21.666C86.4233 21.666 82.3536 23.3517 79.353 26.3523C76.3525 29.3529 74.6667 33.4226 74.6667 37.666C74.6667 41.9095 76.3525 45.9791 79.353 48.9797C82.3536 51.9803 86.4233 53.666 90.6667 53.666Z" fill="url(#paint1_linear_417_2357)"/>
<path d="M90.6667 53.666C94.9102 53.666 98.9799 51.9803 101.98 48.9797C104.981 45.9791 106.667 41.9095 106.667 37.666C106.667 33.4226 104.981 29.3529 101.98 26.3523C98.9799 23.3517 94.9102 21.666 90.6667 21.666C86.4233 21.666 82.3536 23.3517 79.353 26.3523C76.3525 29.3529 74.6667 33.4226 74.6667 37.666C74.6667 41.9095 76.3525 45.9791 79.353 48.9797C82.3536 51.9803 86.4233 53.666 90.6667 53.666Z" fill="black" fill-opacity="0.05"/>
<path d="M42.6666 53.6667C48.3245 53.6667 53.7508 51.4191 57.7515 47.4183C61.7523 43.4175 63.9999 37.9913 63.9999 32.3333C63.9999 26.6754 61.7523 21.2492 57.7515 17.2484C53.7508 13.2476 48.3245 11 42.6666 11C37.0086 11 31.5824 13.2476 27.5816 17.2484C23.5809 21.2492 21.3333 26.6754 21.3333 32.3333C21.3333 37.9913 23.5809 43.4175 27.5816 47.4183C31.5824 51.4191 37.0086 53.6667 42.6666 53.6667Z" fill="url(#paint2_linear_417_2357)"/>
<path d="M120 88.3333C120 72.1307 106.867 59 90.6666 59C74.4693 59 61.336 72.1307 61.336 88.3333C61.336 93.304 62.5786 98.0987 64.9066 102.365L61.4346 114.408C61.3081 114.846 61.3013 115.31 61.4149 115.751C61.5285 116.192 61.7583 116.595 62.0804 116.917C62.4025 117.24 62.8051 117.47 63.2464 117.584C63.6876 117.698 64.1514 117.691 64.5893 117.565L76.64 114.099C80.9425 116.444 85.7662 117.67 90.6666 117.661C106.867 117.661 120 104.528 120 88.328" fill="url(#paint3_linear_417_2357)"/>
<path d="M79.9999 80.334H101.333C102.04 80.334 102.719 80.6149 103.219 81.115C103.719 81.6151 104 82.2934 104 83.0007C104 83.7079 103.719 84.3862 103.219 84.8863C102.719 85.3864 102.04 85.6673 101.333 85.6673H79.9999C79.2927 85.6673 78.6144 85.3864 78.1143 84.8863C77.6142 84.3862 77.3333 83.7079 77.3333 83.0007C77.3333 82.2934 77.6142 81.6151 78.1143 81.115C78.6144 80.6149 79.2927 80.334 79.9999 80.334ZM77.3333 93.6673C77.3333 92.9601 77.6142 92.2818 78.1143 91.7817C78.6144 91.2816 79.2927 91.0007 79.9999 91.0007H93.3333C94.0405 91.0007 94.7188 91.2816 95.2189 91.7817C95.719 92.2818 95.9999 92.9601 95.9999 93.6673C95.9999 94.3746 95.719 95.0528 95.2189 95.5529C94.7188 96.053 94.0405 96.334 93.3333 96.334H79.9999C79.2927 96.334 78.6144 96.053 78.1143 95.5529C77.6142 95.0528 77.3333 94.3746 77.3333 93.6673Z" fill="url(#paint4_linear_417_2357)"/>
<defs>
<linearGradient id="paint0_linear_417_2357" x1="42.6667" y1="57.2207" x2="60.6613" y2="119.666" gradientUnits="userSpaceOnUse">
<stop stop-color="#CACFC3"/>
<stop offset="1" stop-color="#C6D5C4"/>
</linearGradient>
<linearGradient id="paint1_linear_417_2357" x1="82.2774" y1="25.9193" x2="98.5841" y2="51.9593" gradientUnits="userSpaceOnUse">
<stop offset="0.125" stop-color="#CACFC3"/>
<stop offset="1" stop-color="#C6D5C4"/>
</linearGradient>
<linearGradient id="paint2_linear_417_2357" x1="31.4799" y1="16.672" x2="53.2239" y2="51.392" gradientUnits="userSpaceOnUse">
<stop offset="0.13" stop-color="#CACFC3"/>
<stop offset="1" stop-color="#C6D5C4"/>
</linearGradient>
<linearGradient id="paint3_linear_417_2357" x1="63.4293" y1="70" x2="114.645" y2="157.32" gradientUnits="userSpaceOnUse">
<stop stop-color="#EBCDC9"/>
<stop offset="1" stop-color="#E7B8B1"/>
</linearGradient>
<linearGradient id="paint4_linear_417_2357" x1="79.6666" y1="80.614" x2="81.2853" y2="98.0247" gradientUnits="userSpaceOnUse">
<stop stop-color="white"/>
<stop offset="1" stop-color="#F8F7F3"/>
</linearGradient>
</defs>
</svg>
