<svg width="24" height="24" viewBox="0 0 24 24" fill="none" xmlns="http://www.w3.org/2000/svg">
<path d="M8.24997 5.25C8.24997 4.25544 8.64505 3.30161 9.34832 2.59835C10.0516 1.89509 11.0054 1.5 12 1.5C12.9945 1.5 13.9484 1.89509 14.6516 2.59835C15.3549 3.30161 15.75 4.25544 15.75 5.25C15.75 6.24456 15.3549 7.19839 14.6516 7.90165C13.9484 8.60491 12.9945 9 12 9C11.0054 9 10.0516 8.60491 9.34832 7.90165C8.64505 7.19839 8.24997 6.24456 8.24997 5.25ZM9.74997 10.5C9.15323 10.5 8.58093 10.7371 8.15898 11.159C7.73702 11.581 7.49997 12.1533 7.49997 12.75V16.5C7.49997 17.6935 7.97407 18.8381 8.81799 19.682C9.6619 20.5259 10.8065 21 12 21C13.1934 21 14.338 20.5259 15.1819 19.682C16.0259 18.8381 16.5 17.6935 16.5 16.5V12.75C16.5 12.1533 16.2629 11.581 15.841 11.159C15.419 10.7371 14.8467 10.5 14.25 10.5H9.74997ZM6.08397 11.955C6.02772 12.2162 5.99956 12.4828 5.99997 12.75V16.5C5.99982 17.3028 6.16078 18.0975 6.47331 18.8369C6.78585 19.5764 7.2436 20.2456 7.81947 20.805L7.66947 20.847C6.51698 21.1553 5.28922 20.9934 4.25608 20.3968C3.22294 19.8002 2.46899 18.8178 2.15997 17.6655L1.57647 15.4905C1.50003 15.2051 1.48056 14.9074 1.51917 14.6144C1.55778 14.3215 1.65372 14.039 1.80151 13.7831C1.94929 13.5273 2.14603 13.303 2.38049 13.1232C2.61495 12.9433 2.88253 12.8114 3.16797 12.735L6.08397 11.955ZM16.179 20.805C16.7551 20.2458 17.2131 19.5766 17.5259 18.8371C17.8387 18.0976 17.9999 17.3029 18 16.5V12.75C17.999 12.476 17.971 12.211 17.916 11.955L20.8305 12.735C21.1161 12.8114 21.3838 12.9434 21.6184 13.1233C21.8529 13.3032 22.0498 13.5276 22.1976 13.7837C22.3454 14.0397 22.4413 14.3224 22.4798 14.6155C22.5183 14.9086 22.4986 15.2065 22.422 15.492L21.84 17.6655C21.6837 18.2488 21.4115 18.7947 21.0398 19.2707C20.6681 19.7466 20.2043 20.1429 19.6762 20.4359C19.1481 20.7288 18.5665 20.9125 17.9659 20.9759C17.3653 21.0393 16.7566 20.9812 16.179 20.805ZM1.49997 7.5C1.49997 6.70435 1.81604 5.94129 2.37865 5.37868C2.94126 4.81607 3.70432 4.5 4.49997 4.5C5.29562 4.5 6.05868 4.81607 6.62129 5.37868C7.1839 5.94129 7.49997 6.70435 7.49997 7.5C7.49997 8.29565 7.1839 9.05871 6.62129 9.62132C6.05868 10.1839 5.29562 10.5 4.49997 10.5C3.70432 10.5 2.94126 10.1839 2.37865 9.62132C1.81604 9.05871 1.49997 8.29565 1.49997 7.5ZM16.5 7.5C16.5 6.70435 16.816 5.94129 17.3786 5.37868C17.9413 4.81607 18.7043 4.5 19.5 4.5C20.2956 4.5 21.0587 4.81607 21.6213 5.37868C22.1839 5.94129 22.5 6.70435 22.5 7.5C22.5 8.29565 22.1839 9.05871 21.6213 9.62132C21.0587 10.1839 20.2956 10.5 19.5 10.5C18.7043 10.5 17.9413 10.1839 17.3786 9.62132C16.816 9.05871 16.5 8.29565 16.5 7.5Z" fill="#4B4B4B"/>
</svg>
