<svg width="128" height="128" viewBox="0 0 128 128" fill="none" xmlns="http://www.w3.org/2000/svg">
<path fill-rule="evenodd" clip-rule="evenodd" d="M106 48.6C106 26.18 87.196 8 64 8C40.804 8 22 26.18 22 48.604C22 60.568 27.424 71.528 38.028 81.312C38.2315 81.4995 38.3749 81.7431 38.44 82.012L41.488 94.796H59.656V56.996C59.656 54.676 61.6 52.796 64 52.796C66.4 52.796 68.344 54.676 68.344 56.996V94.796H86.512L89.568 82.012C89.6331 81.7431 89.7765 81.4995 89.98 81.312C100.58 71.528 106 60.568 106 48.6ZM59.656 43V34.6C59.656 32.28 61.6 30.4 64 30.4C66.4 30.4 68.344 32.28 68.344 34.6V43C68.344 45.32 66.4 47.2 64 47.2C61.6 47.2 59.656 45.32 59.656 43ZM85.724 41.5783C86.868 41.5783 87.968 42.0186 88.796 42.808C89.1979 43.1913 89.5178 43.6521 89.7364 44.1626C89.955 44.6731 90.0677 45.2227 90.0677 45.778C90.0677 46.3333 89.955 46.8829 89.7364 47.3934C89.5178 47.9039 89.1979 48.3647 88.796 48.748L82.652 54.688C80.956 56.328 78.204 56.328 76.508 54.688C76.1061 54.3047 75.7862 53.8439 75.5676 53.3334C75.349 52.8229 75.2363 52.2733 75.2363 51.718C75.2363 51.1627 75.349 50.6131 75.5676 50.1026C75.7862 49.5921 76.1061 49.1313 76.508 48.748L82.652 42.808C83.48 42.0186 84.58 41.5783 85.724 41.5783ZM42.276 41.5783C43.42 41.5783 44.52 42.0186 45.348 42.808L51.492 48.748C51.8939 49.1313 52.2138 49.5921 52.4324 50.1026C52.651 50.6131 52.7637 51.1627 52.7637 51.718C52.7637 52.2733 52.651 52.8229 52.4324 53.3334C52.2138 53.8439 51.8939 54.3047 51.492 54.688C49.796 56.328 47.044 56.328 45.348 54.688L39.204 48.748C38.8021 48.3647 38.4822 47.9039 38.2636 47.3934C38.045 46.8829 37.9323 46.3333 37.9323 45.778C37.9323 45.2227 38.045 44.6731 38.2636 44.1626C38.4822 43.6521 38.8021 43.1913 39.204 42.808C40.032 42.0186 41.132 41.5783 42.276 41.5783Z" fill="url(#paint0_linear_550_3626)"/>
<path d="M84.496 103.196L82.816 110.244C81.52 115.64 76.752 119.544 71.116 119.964L70.116 120H57.88C52.148 120 47.132 116.388 45.44 111.172L45.18 110.236L43.5 103.196H84.496Z" fill="#E7B8B1"/>
<defs>
<linearGradient id="paint0_linear_550_3626" x1="64" y1="8" x2="64" y2="120" gradientUnits="userSpaceOnUse">
<stop stop-color="#CACFC3"/>
<stop offset="0.149038" stop-color="#C6D5C4"/>
</linearGradient>
</defs>
</svg>
