<svg width="16" height="16" viewBox="0 0 16 16" fill="none" xmlns="http://www.w3.org/2000/svg">
<path d="M8.00479 0C4.66396 0 3.68689 0.00344645 3.49697 0.0192016C2.81137 0.0761911 2.38475 0.184139 1.91997 0.415543C1.56179 0.593404 1.2793 0.799575 1.00051 1.08858C0.492773 1.61564 0.185055 2.26407 0.0736609 3.03484C0.0195025 3.40903 0.00374733 3.48534 0.000547055 5.39664C-0.000683819 6.03374 0.000547055 6.87221 0.000547055 7.99686C0.000547055 11.335 0.00423968 12.3111 0.020241 12.5006C0.0756303 13.1678 0.180255 13.5875 0.401812 14.0466C0.825232 14.9254 1.63392 15.5852 2.58661 15.8314C2.91649 15.9163 3.28082 15.9631 3.74856 15.9852C3.94673 15.9938 5.96659 16 7.98768 16C10.0088 16 12.0299 15.9975 12.2231 15.9877C12.7647 15.9622 13.0792 15.92 13.4269 15.8301C13.8993 15.709 14.3395 15.4862 14.7169 15.1773C15.0943 14.8684 15.3996 14.4808 15.6117 14.0417C15.829 13.5936 15.9391 13.1579 15.989 12.5256C15.9998 12.3878 16.0044 10.1898 16.0044 7.99477C16.0044 5.79938 15.9994 3.60547 15.9886 3.46762C15.9381 2.8251 15.828 2.39306 15.6037 1.93641C15.4197 1.56259 15.2154 1.28343 14.9187 0.997992C14.3895 0.492349 13.742 0.184631 12.9704 0.0733601C12.5966 0.0193247 12.5221 0.00332336 10.6093 0H8.00479Z" fill="url(#paint0_radial_264_1093)"/>
<path d="M8.00479 0C4.66396 0 3.68689 0.00344645 3.49697 0.0192016C2.81137 0.0761911 2.38475 0.184139 1.91997 0.415543C1.56179 0.593404 1.2793 0.799575 1.00051 1.08858C0.492773 1.61564 0.185055 2.26407 0.0736609 3.03484C0.0195025 3.40903 0.00374733 3.48534 0.000547055 5.39664C-0.000683819 6.03374 0.000547055 6.87221 0.000547055 7.99686C0.000547055 11.335 0.00423968 12.3111 0.020241 12.5006C0.0756303 13.1678 0.180255 13.5875 0.401812 14.0466C0.825232 14.9254 1.63392 15.5852 2.58661 15.8314C2.91649 15.9163 3.28082 15.9631 3.74856 15.9852C3.94673 15.9938 5.96659 16 7.98768 16C10.0088 16 12.0299 15.9975 12.2231 15.9877C12.7647 15.9622 13.0792 15.92 13.4269 15.8301C13.8993 15.709 14.3395 15.4862 14.7169 15.1773C15.0943 14.8684 15.3996 14.4808 15.6117 14.0417C15.829 13.5936 15.9391 13.1579 15.989 12.5256C15.9998 12.3878 16.0044 10.1898 16.0044 7.99477C16.0044 5.79938 15.9994 3.60547 15.9886 3.46762C15.9381 2.8251 15.828 2.39306 15.6037 1.93641C15.4197 1.56259 15.2154 1.28343 14.9187 0.997992C14.3895 0.492349 13.742 0.184631 12.9704 0.0733601C12.5966 0.0193247 12.5221 0.00332336 10.6093 0H8.00479Z" fill="url(#paint1_radial_264_1093)"/>
<path d="M8.00085 2.09277C6.39628 2.09277 6.19491 2.09979 5.5647 2.12847C4.93573 2.15727 4.5064 2.25685 4.13073 2.40295C3.74215 2.55386 3.41252 2.75572 3.08412 3.08424C2.75548 3.41264 2.55362 3.74227 2.40222 4.13073C2.25575 4.50652 2.15604 4.93597 2.12773 5.5647C2.09967 6.1949 2.09229 6.3964 2.09229 8.00097C2.09229 9.60553 2.09942 9.80629 2.12798 10.4365C2.15691 11.0655 2.25648 11.4948 2.40247 11.8705C2.55349 12.259 2.75536 12.5887 3.08388 12.9171C3.41215 13.2457 3.74178 13.4481 4.13012 13.599C4.50603 13.7451 4.93548 13.8447 5.56433 13.8735C6.19454 13.9021 6.39579 13.9092 8.00023 13.9092C9.60492 13.9092 9.80568 13.9021 10.4359 13.8735C11.0649 13.8447 11.4947 13.7451 11.8706 13.599C12.2591 13.4481 12.5882 13.2457 12.9165 12.9171C13.2451 12.5887 13.447 12.259 13.5984 11.8706C13.7436 11.4948 13.8433 11.0653 13.8728 10.4366C13.9012 9.80641 13.9085 9.60553 13.9085 8.00097C13.9085 6.3964 13.9012 6.19503 13.8728 5.56482C13.8433 4.93584 13.7436 4.50652 13.5984 4.13085C13.447 3.74227 13.2451 3.41264 12.9165 3.08424C12.5878 2.7556 12.2592 2.55374 11.8702 2.40295C11.4936 2.25685 11.064 2.15727 10.435 2.12847C9.80481 2.09979 9.60418 2.09277 7.99912 2.09277H8.00085ZM7.47083 3.15748C7.62814 3.15723 7.80366 3.15748 8.00085 3.15748C9.57833 3.15748 9.7653 3.16314 10.3882 3.19145C10.9643 3.21779 11.2769 3.31405 11.4852 3.39491C11.7609 3.502 11.9575 3.63001 12.1642 3.8368C12.3709 4.04358 12.4989 4.24052 12.6063 4.51624C12.6871 4.72426 12.7835 5.0369 12.8097 5.61295C12.8381 6.23577 12.8442 6.42286 12.8442 7.99961C12.8442 9.57636 12.8381 9.76345 12.8097 10.3863C12.7834 10.9623 12.6871 11.275 12.6063 11.483C12.4992 11.7587 12.3709 11.955 12.1642 12.1617C11.9574 12.3685 11.761 12.4965 11.4852 12.6036C11.2772 12.6848 10.9643 12.7808 10.3882 12.8072C9.76543 12.8355 9.57833 12.8416 8.00085 12.8416C6.42324 12.8416 6.23627 12.8355 5.61344 12.8072C5.0374 12.7806 4.72475 12.6843 4.51637 12.6034C4.24065 12.4964 4.04371 12.3683 3.83692 12.1616C3.63014 11.9548 3.50213 11.7583 3.3948 11.4825C3.31393 11.2745 3.21755 10.9618 3.19133 10.3858C3.16302 9.76296 3.15736 9.57587 3.15736 7.99813C3.15736 6.4204 3.16302 6.23429 3.19133 5.61147C3.21767 5.03542 3.31393 4.72278 3.3948 4.51452C3.50188 4.2388 3.63014 4.04186 3.83692 3.83507C4.04371 3.62829 4.24065 3.50028 4.51637 3.39294C4.72463 3.31171 5.0374 3.2157 5.61344 3.18924C6.15847 3.16462 6.36969 3.15723 7.47083 3.156V3.15748ZM11.1546 4.13848C11.0144 4.13848 10.8773 4.18007 10.7607 4.25799C10.6441 4.3359 10.5532 4.44664 10.4996 4.57621C10.4459 4.70577 10.4319 4.84834 10.4592 4.98587C10.4866 5.12341 10.5542 5.24974 10.6533 5.34888C10.7525 5.44802 10.8789 5.51553 11.0164 5.54286C11.154 5.57019 11.2965 5.55611 11.4261 5.50241C11.5556 5.44871 11.6663 5.3578 11.7442 5.24118C11.8221 5.12455 11.8636 4.98746 11.8636 4.84722C11.8636 4.4558 11.546 4.13824 11.1546 4.13824V4.13848ZM8.00085 4.96686C6.32526 4.96686 4.96674 6.32538 4.96674 8.00097C4.96674 9.67655 6.32526 11.0345 8.00085 11.0345C9.67643 11.0345 11.0346 9.67655 11.0346 8.00097C11.0346 6.32538 9.67631 4.96686 8.00072 4.96686H8.00085ZM8.00085 6.03157C9.08845 6.03157 9.97024 6.91324 9.97024 8.00097C9.97024 9.08856 9.08845 9.97036 8.00085 9.97036C6.91312 9.97036 6.03145 9.08856 6.03145 8.00097C6.03145 6.91324 6.91312 6.03157 8.00085 6.03157Z" fill="white"/>
<defs>
<radialGradient id="paint0_radial_264_1093" cx="0" cy="0" r="1" gradientUnits="userSpaceOnUse" gradientTransform="translate(4.25118 17.2323) rotate(-90) scale(15.8572 14.7524)">
<stop stop-color="#FFDD55"/>
<stop offset="0.1" stop-color="#FFDD55"/>
<stop offset="0.5" stop-color="#FF543E"/>
<stop offset="1" stop-color="#C837AB"/>
</radialGradient>
<radialGradient id="paint1_radial_264_1093" cx="0" cy="0" r="1" gradientTransform="matrix(1.39164 6.95035 -28.6568 5.73793 -2.68082 1.15261)" gradientUnits="userSpaceOnUse">
<stop stop-color="#3771C8"/>
<stop offset="0.128" stop-color="#3771C8"/>
<stop offset="1" stop-color="#6600FF" stop-opacity="0"/>
</radialGradient>
</defs>
</svg>
