<svg width="16" height="16" viewBox="0 0 16 16" fill="none" xmlns="http://www.w3.org/2000/svg">
<path d="M7.2002 8.80046C7.61502 9.21481 8.1771 9.44789 8.76337 9.44864C8.95707 9.44612 9.14985 9.42146 9.33794 9.37512C9.71091 9.27098 10.051 9.07316 10.326 8.80046L10.8498 8.27716L12.4054 6.71589C12.6971 6.40352 12.892 6.01317 12.9662 5.59221C13.0405 5.17126 12.991 4.73779 12.8238 4.34441C12.6566 3.95102 12.3788 3.61463 12.0242 3.37605C11.6696 3.13747 11.2533 3.00695 10.826 3.00033C10.2531 2.99041 9.69872 3.20276 9.27903 3.59283L7.72342 5.15463" stroke="#4B4B4B" stroke-width="1.5" stroke-linecap="round" stroke-linejoin="round"/>
<path d="M8.24008 10.8847L6.6769 12.446C6.36188 12.724 5.97422 12.9066 5.55926 12.9725C5.14429 13.0383 4.71917 12.9846 4.3336 12.8176C3.94802 12.6507 3.61793 12.3774 3.38192 12.0298C3.14591 11.6821 3.01373 11.2745 3.00084 10.8545C2.98538 10.2917 3.18462 9.74412 3.55811 9.32293L5.12129 7.76167L5.64505 7.23836C5.91983 6.96621 6.25956 6.76878 6.63204 6.66478C7.00749 6.56457 7.40269 6.56487 7.778 6.66564C8.15331 6.76641 8.49552 6.9641 8.77032 7.2389" stroke="#4B4B4B" stroke-width="1.5" stroke-linecap="round" stroke-linejoin="round"/>
</svg>
