<svg width="128" height="128" viewBox="0 0 128 128" fill="none" xmlns="http://www.w3.org/2000/svg">
<path fill-rule="evenodd" clip-rule="evenodd" d="M122 92C122 99.9565 118.839 107.587 113.213 113.213C107.587 118.839 99.9565 122 92 122C84.0435 122 76.4129 118.839 70.7868 113.213C65.1607 107.587 62 99.9565 62 92C62 84.0435 65.1607 76.4129 70.7868 70.7868C76.4129 65.1607 84.0435 62 92 62C99.9565 62 107.587 65.1607 113.213 70.7868C118.839 76.4129 122 84.0435 122 92ZM85.392 83.864L89.152 72.552C90.064 69.816 93.936 69.816 94.848 72.552L98.608 83.864H110.584C113.508 83.864 114.708 87.616 112.32 89.308L102.692 96.136L106.412 107.304C107.324 110.056 104.192 112.376 101.828 110.696L92 103.724L82.172 110.696C79.808 112.372 76.676 110.052 77.588 107.304L81.304 96.136L71.68 89.308C69.296 87.616 70.492 83.864 73.416 83.864H85.392Z" fill="#E7B8B1"/>
<path fill-rule="evenodd" clip-rule="evenodd" d="M42 56C47.8348 56 53.4305 53.6822 57.5564 49.5564C61.6822 45.4305 64 39.8348 64 34C64 28.1652 61.6822 22.5695 57.5564 18.4437C53.4305 14.3179 47.8348 12 42 12C36.1652 12 30.5695 14.3179 26.4437 18.4437C22.3179 22.5695 20 28.1652 20 34C20 39.8348 22.3179 45.4305 26.4437 49.5564C30.5695 53.6822 36.1652 56 42 56ZM56 92C56 81.152 60.8 71.428 68.384 64.828C66.9873 64.2804 65.5002 63.9995 64 64H20C16.8174 64 13.7652 65.2643 11.5147 67.5147C9.26428 69.7652 8 72.8174 8 76V76.6C8 76.6 8 100 42 100C47.768 100 52.56 99.328 56.532 98.208C56.1756 96.1579 55.9976 94.0808 56 92Z" fill="url(#paint0_linear_550_3624)"/>
<path d="M92 56C96.2435 56 100.313 54.3143 103.314 51.3137C106.314 48.3131 108 44.2435 108 40C108 35.7565 106.314 31.6869 103.314 28.6863C100.313 25.6857 96.2435 24 92 24C87.7565 24 83.6869 25.6857 80.6863 28.6863C77.6857 31.6869 76 35.7565 76 40C76 44.2435 77.6857 48.3131 80.6863 51.3137C83.6869 54.3143 87.7565 56 92 56Z" fill="url(#paint1_linear_550_3624)"/>
<path d="M92 56C96.2435 56 100.313 54.3143 103.314 51.3137C106.314 48.3131 108 44.2435 108 40C108 35.7565 106.314 31.6869 103.314 28.6863C100.313 25.6857 96.2435 24 92 24C87.7565 24 83.6869 25.6857 80.6863 28.6863C77.6857 31.6869 76 35.7565 76 40C76 44.2435 77.6857 48.3131 80.6863 51.3137C83.6869 54.3143 87.7565 56 92 56Z" fill="black" fill-opacity="0.05"/>
<defs>
<linearGradient id="paint0_linear_550_3624" x1="65" y1="12" x2="65" y2="122" gradientUnits="userSpaceOnUse">
<stop stop-color="#CACFC3"/>
<stop offset="0.163462" stop-color="#C6D5C4"/>
</linearGradient>
<linearGradient id="paint1_linear_550_3624" x1="65" y1="12" x2="65" y2="122" gradientUnits="userSpaceOnUse">
<stop stop-color="#CACFC3"/>
<stop offset="0.298077" stop-color="#C6D5C4"/>
</linearGradient>
</defs>
</svg>
