<svg width="128" height="128" viewBox="0 0 128 128" fill="none" xmlns="http://www.w3.org/2000/svg">
<path d="M9.172 98.304C8.42212 97.5539 8.00085 96.5367 8.00085 95.476C8.00085 94.4153 8.42212 93.3981 9.172 92.648L21.172 80.648C21.9264 79.9194 22.9368 79.5162 23.9856 79.5253C25.0344 79.5344 26.0376 79.9551 26.7793 80.6967C27.5209 81.4384 27.9416 82.4416 27.9507 83.4904C27.9598 84.5392 27.5566 85.5496 26.828 86.304L14.828 98.304C14.0779 99.0539 13.0607 99.4751 12 99.4751C10.9393 99.4751 9.92211 99.0539 9.172 98.304Z" fill="#E7B8B1"/>
<path d="M9.172 20.648C9.92211 19.8981 10.9393 19.4769 12 19.4769C13.0607 19.4769 14.0779 19.8981 14.828 20.648L26.828 32.648C27.5566 33.4024 27.9598 34.4128 27.9507 35.4616C27.9416 36.5104 27.5209 37.5136 26.7793 38.2553C26.0376 38.9969 25.0344 39.4176 23.9856 39.4267C22.9368 39.4358 21.9264 39.0326 21.172 38.304L9.172 26.304C8.42212 25.5539 8.00085 24.5367 8.00085 23.476C8.00085 22.4153 8.42212 21.3981 9.172 20.648Z" fill="#E7B8B1"/>
<path d="M101.172 32.648C100.443 33.4024 100.04 34.4128 100.049 35.4616C100.058 36.5104 100.479 37.5136 101.221 38.2553C101.962 38.9969 102.966 39.4176 104.014 39.4267C105.063 39.4358 106.074 39.0326 106.828 38.304L118.828 26.304C119.557 25.5496 119.96 24.5392 119.951 23.4904C119.942 22.4416 119.521 21.4384 118.779 20.6967C118.038 19.9551 117.034 19.5344 115.986 19.5253C114.937 19.5162 113.926 19.9194 113.172 20.648L101.172 32.648Z" fill="#E7B8B1"/>
<path fill-rule="evenodd" clip-rule="evenodd" d="M69.392 15.36C67.196 10.88 60.816 10.88 58.62 15.36L45.82 41.44L17.14 45.64C12.228 46.356 10.26 52.384 13.804 55.86L34.588 76.244L29.688 104.976C28.852 109.884 34.008 113.616 38.408 111.288L64.008 97.748L89.6 111.288C94 113.616 99.16 109.884 98.32 104.976L93.424 76.244L114.204 55.86C117.748 52.38 115.78 46.356 110.872 45.636L82.188 41.444L69.392 15.36Z" fill="url(#paint0_linear_550_3636)"/>
<path d="M101.172 80.648C101.922 79.8981 102.939 79.4769 104 79.4769C105.061 79.4769 106.078 79.8981 106.828 80.648L118.828 92.648C119.557 93.4024 119.96 94.4128 119.951 95.4616C119.942 96.5104 119.521 97.5136 118.779 98.2553C118.038 98.9969 117.034 99.4176 115.986 99.4267C114.937 99.4358 113.926 99.0326 113.172 98.304L101.172 86.304C100.422 85.5539 100.001 84.5367 100.001 83.476C100.001 82.4153 100.422 81.3981 101.172 80.648Z" fill="#E7B8B1"/>
<defs>
<linearGradient id="paint0_linear_550_3636" x1="63.9759" y1="12" x2="63.9759" y2="111.998" gradientUnits="userSpaceOnUse">
<stop stop-color="#CACFC3"/>
<stop offset="0.1875" stop-color="#C6D5C4"/>
</linearGradient>
</defs>
</svg>
