<svg width="113" height="164" viewBox="0 0 113 164" fill="none" xmlns="http://www.w3.org/2000/svg">
<path d="M98.3654 41.1289C94.6461 34.0309 91.5566 35.6527 73.659 16.6031C62.7638 5.02464 60.5347 0.881273 59.7279 -4.15498C57.855 -15.8082 64.6373 -26.0276 66.9169 -29.1266C77.2848 -43.2487 94.0703 -45.7029 99.4188 -46.4764C109.133 -47.8755 116.268 -39.967 125.909 -43.9948C128.777 -45.2068 129.764 -46.3877 132.546 -46.5494C137.393 -46.8381 140.923 -43.6638 150.395 -34.9358C163.917 -22.4116 164.784 -21.5069 165.446 -19.3446C167.947 -11.2891 164.687 -3.58868 162.266 1.99133C157.417 13.1098 149.733 20.0378 134.558 33.4058C122.154 44.354 115.936 49.8331 109.145 54.5321C101.672 59.6881 97.2946 61.8983 94.0219 67.6317C88.5007 77.32 90.4651 89.5891 92.2557 89.7141C95.1688 89.8545 108.475 60.3783 98.3654 41.1289ZM60.7144 35.3185C61.302 33.6537 74.2108 34.5438 82.4925 41.8244C87.3853 46.1431 88.4591 50.7563 91.6589 58.8569C94.5647 66.2394 98.4205 73.2114 106.161 87.2336C115.563 104.334 120.487 113.054 130.392 120.033C135.343 123.525 142.244 128.252 151.052 127.714C159.257 127.184 164.804 122.331 170.788 117.087C178.757 110.076 182.833 102.826 186.451 96.2143C191.655 86.7537 194.908 80.8035 196.011 72.0091C196.655 66.8193 198.663 50.6161 187.192 37.7954C184.666 34.9736 176.191 26.4268 163.943 25.5991C158.691 25.2327 153.926 26.3999 139.325 34.0418C115.336 46.5839 116.147 49.8153 107.992 51.7395C85.9507 56.9112 59.8087 37.9771 60.7144 35.3185ZM109.632 41.9808C111.32 42.4753 111.883 53.914 105.72 61.3844C102.074 65.8236 97.7059 66.8698 90.1738 69.8991C83.3386 72.6467 76.9477 76.2048 64.1376 83.3726C48.5173 92.0815 40.6173 96.638 34.9169 105.556C32.0504 110.023 28.2199 116.221 29.7403 124.004C31.1506 131.256 36.4826 136.047 42.3165 141.249C50.0224 148.183 57.5317 151.616 64.3813 154.69C74.1843 159.091 80.3425 161.845 89.0046 162.597C94.1123 163.042 110.135 164.49 121.347 154.016C123.81 151.723 131.191 144.024 130.636 133.188C130.395 128.507 128.758 124.316 119.671 111.579C104.771 90.5883 101.705 91.3941 98.948 84.2279C91.3998 64.8004 106.93 41.2235 109.632 41.9808ZM124.533 66.2208C124.761 67.9092 114.271 73.5912 104.733 71.6034C99.069 70.4109 96.3142 67.099 90.4006 61.9201C85.0101 57.2263 79.0627 53.2556 67.132 45.3617C52.5507 35.7134 45.0673 30.8956 34.3822 29.962C29.0177 29.5047 21.6215 28.9859 14.9972 33.81C8.75026 38.3149 6.47622 45.1311 3.9415 52.5416C0.608702 62.3634 0.456393 70.4506 0.390666 77.7899C0.301968 88.2988 0.235664 94.9094 3.03126 102.787C4.67582 107.452 9.92024 122.028 24.2722 127.036C27.4206 128.14 37.6618 131.086 47.638 125.676C51.9026 123.375 55.1801 120.03 63.4152 106.395C76.9957 83.9376 75.0054 81.6464 80.5804 76.0136C95.7021 60.6845 124.185 63.5415 124.533 66.2208ZM113.764 91.8873C112.412 93.1305 101.674 86.3929 98.0675 76.1366C95.967 70.0657 97.2956 65.4501 98.5074 56.7541C99.6157 48.8539 99.7113 40.8696 99.9633 24.8341C100.232 5.28494 100.252 -4.73464 95.1216 -15.4959C92.5439 -20.8667 88.9094 -28.2486 80.9831 -31.7771C73.5981 -35.079 66.3964 -33.3004 58.5977 -31.3431C48.1988 -28.764 41.1231 -24.1554 34.6699 -19.9367C25.493 -13.856 19.7289 -10.0528 14.4223 -2.74312C11.2986 1.582 1.52967 15.1047 5.18917 31.7643C5.98942 35.431 9.14004 46.9311 19.3361 53.2692C23.7211 55.9803 28.4316 57.1456 44.8581 57.019C71.9031 56.8259 72.803 53.5698 80.802 55.5761C102.504 61.0722 115.867 89.9513 113.764 91.8873Z" stroke="white" stroke-width="0.722338" stroke-miterlimit="10"/>
</svg>
