<svg width="64" height="139" viewBox="0 0 64 139" fill="none" xmlns="http://www.w3.org/2000/svg">
<path d="M-21.2641 91.5942C-20.0267 97.6572 -17.3871 97.1164 -8.19406 115.085C-2.59394 126.011 -1.82862 129.562 -2.30981 133.471C-3.41883 142.518 -10.6412 148.645 -12.9968 150.455C-23.7158 158.709 -36.6942 156.931 -40.8278 156.358C-48.3344 155.313 -51.9319 147.916 -59.9471 148.837C-62.3347 149.122 -63.32 149.786 -65.4189 149.309C-69.0759 148.485 -71.0144 145.373 -76.17 136.867C-83.5162 124.677 -83.9653 123.82 -83.9928 122.074C-84.1211 115.562 -80.0516 110.548 -77.0591 106.928C-71.0786 99.7194 -63.8928 96.2274 -49.7688 89.564C-38.2203 84.1014 -32.4322 81.37 -26.3876 79.3399C-19.738 77.1172 -16.0168 76.4161 -12.3598 72.8644C-6.18681 66.861 -5.01363 57.338 -6.31513 56.8614C-8.44611 56.1328 -24.637 75.1467 -21.2641 91.5942ZM5.42129 103.977C4.62848 105.086 -4.75699 101.658 -9.33974 94.4813C-12.0436 90.2285 -11.8511 86.5761 -12.4881 79.8806C-13.0609 73.781 -14.4266 67.7822 -17.1625 55.7203C-20.4713 41.0188 -22.2539 33.4939 -28.1061 26.1936C-31.0299 22.5411 -35.1361 17.5551 -41.7856 16.0657C-47.9861 14.7 -53.1417 17.1106 -58.7052 19.7182C-66.1201 23.2102 -70.6982 27.7151 -74.7998 31.8441C-80.6886 37.7467 -84.3777 41.4634 -87.0816 47.7509C-88.6718 51.4629 -93.6349 63.0527 -87.8744 75.0229C-86.605 77.658 -82.1505 85.8153 -73.2417 89.0553C-69.4242 90.4531 -65.6389 90.6089 -53.1692 88.07C-32.6843 83.9089 -32.5926 81.338 -26.131 81.6588C-8.67066 82.5478 6.66322 102.199 5.42129 103.977ZM-29.4397 88.5466C-30.5854 87.818 -28.5506 79.2116 -22.3777 74.9908C-18.7206 72.4795 -15.2561 72.6399 -9.01896 72.0075C-3.35926 71.4346 2.14463 70.1652 13.1845 67.5943C26.6394 64.4826 33.4769 62.7961 39.6178 57.4022C42.702 54.703 46.8723 50.9268 47.4131 44.8271C47.9217 39.1445 44.9934 34.4472 41.7809 29.3374C37.551 22.5411 32.7162 18.3846 28.2938 14.6359C21.965 9.26946 17.9872 5.90572 11.7226 3.4906C8.02889 2.06536 -3.54715 -2.44407 -14.1104 2.92234C-16.4293 4.09553 -23.5554 8.2246 -25.4665 16.3819C-26.2913 19.9061 -25.9751 23.366 -21.9652 34.7634C-15.4119 53.5298 -12.9647 53.5893 -12.456 59.4965C-11.0216 75.527 -27.5974 89.6878 -29.4397 88.5466ZM-35.2965 67.3697C-35.104 66.0682 -26.1035 64.1022 -19.4539 67.6218C-15.5081 69.7207 -14.1745 72.7682 -10.8979 77.878C-7.90534 82.5157 -4.34455 86.7365 2.8137 95.1504C11.5622 105.434 16.0808 110.613 23.8073 113.596C27.6889 115.085 33.0645 117.056 39.0129 114.898C44.613 112.895 47.7614 108.326 51.2305 103.372C55.8087 96.8002 57.6555 90.8334 59.2778 85.4029C61.5967 77.6259 63.0632 72.7361 62.6782 66.2928C62.4582 62.4799 61.6929 50.5418 52.1195 43.7502C50.0206 42.2562 43.0549 37.8751 34.4943 39.7494C30.8372 40.5422 27.6889 42.3203 18.6563 50.6701C3.76692 64.4184 4.75222 66.5448 -0.591274 69.5282C-15.0957 77.658 -35.6127 69.432 -35.2965 67.3697ZM-21.8048 50.638C-20.5354 50.0056 -14.0142 57.306 -13.5375 65.6878C-13.2809 70.6418 -15.2561 73.781 -18.0195 79.9723C-20.5354 85.5953 -22.3181 91.4979 -25.9431 103.34C-30.3333 117.785 -32.4964 125.213 -30.9978 134.296C-30.2371 138.833 -29.1235 145.089 -24 149.406C-19.2293 153.439 -13.5055 153.663 -7.30043 153.883C0.966858 154.199 7.20399 152.297 12.8958 150.551C21.0072 148.008 26.0987 146.422 31.6026 142.137C34.8472 139.599 44.9934 131.661 45.8503 118.518C46.0428 115.626 46.1711 106.419 39.9661 99.5315C37.2943 96.5802 34.0498 94.7059 21.8367 91.278C1.73218 85.6229 0.366518 87.8455 -5.13737 84.6421C-20.0588 75.912 -23.78 51.6233 -21.8048 50.638Z" stroke="white" stroke-width="0.722338" stroke-miterlimit="10"/>
</svg>
